PathFileType	4	(X/Y/Z)	C:/Users/opensim2020/Desktop/walking_exp_matlab/subject03_walking04_static.trc																																																																																																																																																							
DataRate	CameraRate	NumFrames	NumMarkers	Units	OrigDataRate	OrigDataStartFrame	OrigNumFrames																																																																																																																																																			
100	100	4	51	mm	100	232	196																																																																																																																																																			
Frame#	Time	LFHD			RFHD			LBHD			RBHD			C7			T10			CLAV			STRN			RBAK			LSHO			LUPA			LELB			LFRM			LWRA			LWRB			LFIN			RSHO			RUPA			RELB			RFRM			RWRA			RWRB			RFIN			LASI			RASI			LPSI			RPSI			LTHI			LKNE			LTIB			LANK			LHEE			LTOE			RTHI			RKNE			RTIB			RANK			RHEE			RTOE			*39			*40			*41			*42			*43			*44			*45			*46			*47			*48			*49			*50		
		X1	Y1	Z1	X2	Y2	Z2	X3	Y3	Z3	X4	Y4	Z4	X5	Y5	Z5	X6	Y6	Z6	X7	Y7	Z7	X8	Y8	Z8	X9	Y9	Z9	X10	Y10	Z10	X11	Y11	Z11	X12	Y12	Z12	X13	Y13	Z13	X14	Y14	Z14	X15	Y15	Z15	X16	Y16	Z16	X17	Y17	Z17	X18	Y18	Z18	X19	Y19	Z19	X20	Y20	Z20	X21	Y21	Z21	X22	Y22	Z22	X23	Y23	Z23	X24	Y24	Z24	X25	Y25	Z25	X26	Y26	Z26	X27	Y27	Z27	X28	Y28	Z28	X29	Y29	Z29	X30	Y30	Z30	X31	Y31	Z31	X32	Y32	Z32	X33	Y33	Z33	X34	Y34	Z34	X35	Y35	Z35	X36	Y36	Z36	X37	Y37	Z37	X38	Y38	Z38	X39	Y39	Z39	X40	Y40	Z40	X41	Y41	Z41	X42	Y42	Z42	X43	Y43	Z43	X44	Y44	Z44	X45	Y45	Z45	X46	Y46	Z46	X47	Y47	Z47	X48	Y48	Z48	X49	Y49	Z49	X50	Y50	Z50	X51	Y51	Z51
																																																																																																																																																										
50	0.49	-354.53949	1632.84399	-665.49023	-385.97559	1642.67346	-536.03156	-481.91483	1592.05957	-688.76544	-508.35248	1602.03125	-560.83588	-524.15839	1427.63281	-623.29871	-544.15839	1115.93372	-615.34723	-395.44046	1362.74194	-609.29767	-342.3688	1198.32227	-608.45618	-575.0564	1249.57422	-531.87793	-446.38867	1399.73584	-768.1424	-462.96875	1210.68518	-853.32397	-460.61203	1090.98035	-882.08173	-431.5372	965.43665	-903.37341	-400.28934	847.14825	-894.38458	-436.5813	855.04742	-936.12567	-414.11304	772.9408	-940.40546	-474.3858	1391.28833	-459.51395	-482.11856	1181.47449	-363.05927	-467.03674	1074.28052	-328.74771	-446.16183	941.28998	-300.04431	-403.72791	844.76447	-310.60092	-445.63632	843.31726	-275.32889	-418.08701	773.03052	-269.59811	-389.10229	946.94214	-719.19305	-400.72342	947.56464	-485.45911	-552.59888	979.54535	-679.5556	-556.98694	987.36597	-530.36078	-456.88806	647.73285	-772.07056	-462.66827	470.05176	-735.36438	-518.47174	285.49652	-754.31323	-539.37622	73.82201	-729.66632	-580.76947	36.79768	-696.98499	-387.03638	34.49802	-709.18726	-473.11694	653.95667	-439.52008	-467.07617	474.15027	-473.66937	-519.65552	292.73672	-461.92255	-547.1369	76.0401	-501.03571	-587.53192	41.75881	-552.7467	-404.94901	36.46984	-500.44125	-444.58258	1698.89453	-638.40051	NaN	NaN	NaN	NaN	NaN	NaN	NaN	NaN	NaN	NaN	NaN	NaN	NaN	NaN	NaN	NaN	NaN	NaN	NaN	NaN	NaN	NaN	NaN	NaN	NaN	NaN	NaN	NaN	NaN	NaN	NaN	NaN	NaN
51	0.5	-354.42325	1632.85535	-665.52771	-385.82446	1642.70984	-536.02545	-481.81027	1592.06641	-688.75488	-508.19501	1602.05444	-560.82581	-523.97241	1427.65295	-623.32635	-544.06946	1115.95984	-615.35248	-395.28799	1362.7113	-609.24646	-342.28363	1198.26721	-608.45477	-574.95789	1249.58325	-531.90204	-446.17953	1399.70581	-768.1272	-462.78506	1210.65466	-853.31293	-460.40524	1090.9447	-882.03784	-431.35269	965.40967	-903.32153	-400.16501	847.08124	-894.35461	-436.44217	855.00653	-936.10535	-414.0022	772.90265	-940.39777	-474.24469	1391.23279	-459.51816	-482.02069	1181.45923	-363.03131	-466.95172	1074.22632	-328.72791	-445.98755	941.07813	-300.117	-403.62332	844.69287	-310.53537	-445.59174	843.31097	-275.25806	-418.03131	773.02777	-269.53375	-389.01514	946.94519	-719.23096	-400.61133	947.54468	-485.51059	-552.55927	979.52765	-679.59937	-556.85736	987.3595	-530.40747	-456.83545	647.71802	-772.11096	-462.67075	470.05344	-735.38763	-518.46649	285.49286	-754.30841	-539.46796	73.97124	-730.0481	-580.74884	36.76049	-696.95123	-387.00659	34.4928	-709.20465	-473.04477	653.9541	-439.57422	-467.06415	474.16333	-473.68152	-519.64148	292.7634	-461.94397	-547.0683	76.06509	-500.99951	-587.40973	41.69411	-552.50763	-404.95877	36.45667	-500.43143	-444.466	1698.87671	-638.32532	NaN	NaN	NaN	NaN	NaN	NaN	NaN	NaN	NaN	NaN	NaN	NaN	NaN	NaN	NaN	NaN	NaN	NaN	NaN	NaN	NaN	NaN	NaN	NaN	NaN	NaN	NaN	NaN	NaN	NaN	NaN	NaN	NaN
52	0.51	-354.30133	1632.84937	-665.56354	-385.62576	1642.72632	-536.03687	-481.68442	1592.03467	-688.76251	-508.07959	1602.02393	-560.83746	-523.82281	1427.67114	-623.31122	-543.9668	1115.9165	-615.33099	-395.14728	1362.67798	-609.237	-342.17596	1198.2417	-608.44281	-574.84448	1249.57263	-531.88342	-446.06949	1399.70569	-768.21661	-462.62149	1210.62122	-853.27582	-460.25681	1090.90881	-882.03699	-431.17938	965.35522	-903.27051	-400.04053	847.04144	-894.28033	-436.30023	854.98364	-936.08765	-413.87271	772.87286	-940.34766	-474.08914	1391.18066	-459.48465	-481.92447	1181.44543	-363.03311	-466.85202	1074.21509	-328.71393	-445.96677	941.18909	-300.02225	-403.54395	844.6759	-310.51288	-445.48047	843.28314	-275.21204	-417.9603	773.0033	-269.51883	-388.94806	946.94238	-719.26953	-400.51898	947.53253	-485.52344	-552.47168	979.54407	-679.6095	-556.74792	987.35529	-530.42676	-456.79587	647.67847	-772.08179	-462.69391	470.0495	-735.39117	-518.48083	285.48233	-754.27716	-539.39978	73.82442	-729.74152	-580.75092	36.7752	-696.94299	-387.03897	34.47969	-709.19208	-472.98636	653.94025	-439.59366	-466.97726	474.39554	-473.18661	-519.64233	292.76462	-461.91953	-547.14124	75.99847	-501.01416	-587.40942	41.67372	-552.47375	-404.94839	36.45612	-500.42676	-444.32037	1698.9032	-638.40515	NaN	NaN	NaN	NaN	NaN	NaN	NaN	NaN	NaN	NaN	NaN	NaN	NaN	NaN	NaN	NaN	NaN	NaN	NaN	NaN	NaN	NaN	NaN	NaN	NaN	NaN	NaN	NaN	NaN	NaN	NaN	NaN	NaN
53	0.52	-354.1832	1632.8606	-665.6001	-385.46951	1642.73889	-536.09033	-481.57037	1592.02527	-688.75311	-507.92166	1602.02368	-560.81104	-523.65631	1427.67932	-623.2937	-543.83466	1115.99548	-615.36884	-395.03879	1362.64478	-609.23987	-342.09384	1198.21436	-608.42242	-574.70764	1249.58728	-531.91016	-445.81396	1399.64197	-768.12006	-462.4389	1210.59509	-853.2334	-460.07138	1090.89673	-882.0202	-430.98566	965.3327	-903.25122	-399.88577	847.00244	-894.22693	-436.12491	854.98395	-936.09515	-413.6514	772.82074	-940.13055	-473.98422	1391.19482	-459.43106	-481.79846	1181.41614	-363.005	-466.73846	1074.19897	-328.69778	-445.85376	941.16058	-299.9845	-403.4436	844.63422	-310.46765	-445.43692	843.26007	-275.18173	-417.87149	772.96631	-269.42953	-388.86423	946.92493	-719.30914	-400.42609	947.52448	-485.55203	-552.44879	979.58966	-679.71851	-556.62378	987.36456	-530.43958	-456.75015	647.70551	-772.11865	-462.68588	470.03561	-735.40155	-518.49463	285.48859	-754.28693	-539.40363	73.84493	-729.789	-580.78516	36.77706	-696.95898	-387.03964	34.47699	-709.19751	-472.89719	653.94135	-439.62943	-466.94943	474.39874	-473.1803	-519.61597	292.73999	-461.97626	-547.16107	76.02116	-501.03433	-587.53339	41.76856	-552.7403	-404.95816	36.46922	-500.42609	-444.21912	1698.90527	-638.44043	NaN	NaN	NaN	NaN	NaN	NaN	NaN	NaN	NaN	NaN	NaN	NaN	NaN	NaN	NaN	NaN	NaN	NaN	NaN	NaN	NaN	NaN	NaN	NaN	NaN	NaN	NaN	NaN	NaN	NaN	NaN	NaN	NaN
